<?xml version="1.0" encoding="UTF-8" standalone="no"?>
<svg width="59px" height="66px" viewBox="0 0 59 66" version="1.1" xmlns="http://www.w3.org/2000/svg" xmlns:xlink="http://www.w3.org/1999/xlink">
    <!-- Generator: Sketch 3.8.3 (29802) - http://www.bohemiancoding.com/sketch -->
    <title>Group 4</title>
    <desc>Created with Sketch.</desc>
    <defs>
        <linearGradient x1="50%" y1="0%" x2="50%" y2="100%" id="linearGradient-1">
            <stop stop-color="#C5C5C5" offset="0%"></stop>
            <stop stop-color="#939393" offset="100%"></stop>
        </linearGradient>
    </defs>
    <g id="Page-1" stroke="none" stroke-width="1" fill="none" fill-rule="evenodd">
        <g id="Group-4" transform="translate(0.000000, -1.000000)">
            <g id="Group-3">
                <path d="M26.7772277,44.162851 C27.8580642,43.7839627 28.9521625,43.4740286 30.1195497,43.5178431 C30.4179401,43.5282581 30.7243574,43.5595029 31.0175129,43.6385128 C31.6470993,43.8051518 31.8149658,44.2479662 31.4935417,44.834794 C31.206668,45.3569775 30.8018342,45.7628009 30.3509331,46.1000294 C28.9427396,47.1465511 27.3715656,47.7685743 25.6531159,47.9808235 C25.3903229,48.0120683 25.1083352,47.976873 24.8392603,47.9287488 C23.8292697,47.7563636 23.5451881,46.4203785 24.0547203,45.7545408 C24.337057,45.3860675 24.7010584,45.1450874 25.0901875,44.9515132 C25.647183,44.6728238 26.2142993,44.4250201 26.7772277,44.162851" id="Fill-8" fill="url(#linearGradient-1)" opacity="0.816756063" transform="translate(27.729986, 45.753183) scale(-1, -1) rotate(-158.000000) translate(-27.729986, -45.753183) "></path>
                <path d="M0.521007871,32.3706966 C-2.53293063,17.6951361 8.32963124,4.85524444 20.2838238,2.47254628 C35.0781673,-0.484104328 50.077938,8.63427469 54.2891962,23.4946258 C56.3649667,30.8042592 55.7283812,38.0857456 52.7126617,44.9707275 C49.3899957,52.5422496 42.9082889,55.5270471 35.2967323,56.4705809 C33.8587417,56.6480289 32.4004473,56.6272246 31.4485548,56.6688331 C15.5195842,56.7190081 3.52478391,46.835767 0.521007871,32.3706966 Z" id="Fill-2" fill="#F1EFEF" transform="translate(27.750000, 29.293192) scale(-1, 1) translate(-27.750000, -29.293192) "></path>
                <path d="M33.0817397,40.4574255 C39.3002772,35.1297363 48.7372281,34.4676299 55.0297315,39.1440966 C56.8788759,40.5100312 58.3906643,42.2024841 58.8182226,44.609649 C59.3973205,47.75148 57.8674917,50.2638564 54.7735573,51.0094064 C53.3934641,51.3558785 51.9466213,51.450206 50.5250351,51.6189071 C49.646466,51.7132346 48.7588767,51.7241185 47.8803075,51.8075621 C42.2733407,52.3027814 41.1818945,53.2787081 40.2401838,58.8295181 C39.8523145,61.0462141 39.2894529,63.1468147 37.7668403,64.8918733 C36.2388156,66.6677697 34.386063,66.8781925 32.7678361,65.1966236 C31.8802468,64.2624187 31.0106979,63.1377448 30.5831396,61.9278133 C28.6167323,56.3788174 28.4146794,50.7264239 30.3576341,45.1357062 C30.9493604,43.4632072 32.1616775,42.0138291 33.0817397,40.4574255" id="Fill-15" fill="#282727" transform="translate(43.969467, 51.180346) scale(-1, -1) translate(-43.969467, -51.180346) "></path>
                <path d="M8.72709363,47.4408688 C11.8727578,46.2004569 15.057019,45.1857883 18.45458,45.3292293 C19.3230149,45.3633259 20.2148112,45.4656158 21.0680104,45.7242799 C22.9003572,46.2698259 23.3889153,47.7195205 22.4534433,49.6406892 C21.618527,51.3502236 20.4402996,52.6788164 19.127998,53.7828417 C15.0295947,57.208965 10.4568534,59.2453567 5.45548105,59.9402225 C4.69064892,60.0425124 3.86995257,59.9272893 3.0868376,59.7697393 C0.147363276,59.2053813 -0.67942736,54.8316069 0.803514076,52.6517742 C1.62522615,51.445459 2.68461513,50.6565336 3.81713547,50.0228066 C5.43821392,49.1104278 7.08874805,48.2991632 8.72709363,47.4408688" id="Fill-8" fill="#282727" transform="translate(11.500000, 52.647328) rotate(-115.000000) translate(-11.500000, -52.647328) "></path>
                <path d="M42.4078321,35.9831723 C36.8829189,36.0002504 32.7225602,32.6362845 31.6807099,27.7127981 C30.621461,22.7176671 34.3891063,18.347344 38.5353803,17.5363433 C43.6667517,16.529986 48.8693749,19.6336152 50.3300365,24.6916436 C51.050011,27.1796287 50.8292133,29.6580334 49.7832205,32.0014797 C48.6307643,34.5786041 46.3826047,35.5945417 43.7425603,35.915693 C43.2437978,35.9760911 42.737993,35.96901 42.4078321,35.9831723" id="Fill-2" fill="#282727"></path>
                <path d="M46.5941766,6.29716843 C48.6007276,5.59377008 50.6318989,5.01838357 52.7991294,5.09972442 C53.3530852,5.11905954 53.9219428,5.1770649 54.4661801,5.32374513 C55.6349944,5.63310705 55.946635,6.45518304 55.3499177,7.54461706 C54.8173427,8.51404 54.0657769,9.26744297 53.2286882,9.89350083 C50.6144055,11.8363471 47.6975529,12.9911205 44.5072858,13.3851569 C44.019416,13.4431622 43.4959116,13.3778229 42.9963795,13.2884813 C41.1213525,12.9684517 40.5939607,10.4882225 41.5398969,9.25210821 C42.0640492,8.56804499 42.7398105,8.12067031 43.4622207,7.76130376 C44.4962715,7.2439226 45.5491115,6.78388008 46.5941766,6.29716843" id="Fill-8" fill="#282727" transform="translate(48.362954, 9.249587) scale(-1, -1) rotate(-115.000000) translate(-48.362954, -9.249587) "></path>
                <path d="M19.1245118,35.7479968 C13.7431028,35.7646313 9.69080538,32.4880412 8.67601617,27.6924375 C7.64428019,22.8270501 11.3140646,18.5702419 15.3526432,17.7803062 C20.3507322,16.800088 25.4182223,19.8231035 26.8409447,24.7497545 C27.5422185,27.1731167 27.3271558,29.5871472 26.3083316,31.8697247 C25.1858094,34.3799108 22.9960435,35.3694605 20.4245717,35.6822702 C19.9387641,35.7410995 19.4460971,35.7342023 19.1245118,35.7479968" id="Fill-2" fill="#282727" transform="translate(17.875000, 26.672153) scale(-1, 1) translate(-17.875000, -26.672153) "></path>
                <path d="M6.34417662,6.29716843 C8.35072762,5.59377008 10.3818989,5.01838357 12.5491294,5.09972442 C13.1030852,5.11905954 13.6719428,5.1770649 14.2161801,5.32374513 C15.3849944,5.63310705 15.696635,6.45518304 15.0999177,7.54461706 C14.5673427,8.51404 13.8157769,9.26744297 12.9786882,9.89350083 C10.3644055,11.8363471 7.4475529,12.9911205 4.25728584,13.3851569 C3.76941599,13.4431622 3.24591157,13.3778229 2.7463795,13.2884813 C0.871352509,12.9684517 0.343960675,10.4882225 1.28989689,9.25210821 C1.81404922,8.56804499 2.4898105,8.12067031 3.21222069,7.76130376 C4.24627151,7.2439226 5.29911148,6.78388008 6.34417662,6.29716843" id="Fill-8" fill="#282727" transform="translate(8.112954, 9.249587) scale(1, -1) rotate(-115.000000) translate(-8.112954, -9.249587) "></path>
                <path d="M30.5438766,41.3567868 C30.7871969,41.3689842 31.0370626,41.4055761 31.2761141,41.4981073 C31.7895056,41.6932642 31.926391,42.2118599 31.6642881,42.8991149 C31.4303592,43.5106625 31.1002405,43.9859367 30.7325565,44.380877 C29.5842557,45.6064957 28.3030536,46.3349692 26.9017566,46.5835418 C26.687464,46.6201337 26.4575193,46.5789153 26.2381042,46.5225553 C25.4145149,46.3206689 25.1828626,44.7560492 25.5983569,43.976263 C25.8285862,43.5447308 26.1254085,43.2625104 26.4427208,43.0358088 C26.8969187,42.7094258 27.3593694,42.4192141 27.8184052,42.1121785 C28.6997652,41.668449 29.5919395,41.3054741 30.5438766,41.3567868 Z" id="Fill-8" fill="#282727" transform="translate(28.595325, 43.974672) scale(1, -1) rotate(-148.000000) translate(-28.595325, -43.974672) "></path>
            </g>
        </g>
    </g>
</svg>