<?xml version="1.0" encoding="UTF-8" standalone="no"?>
<svg width="22px" height="22px" viewBox="0 0 22 22" version="1.1" xmlns="http://www.w3.org/2000/svg" xmlns:xlink="http://www.w3.org/1999/xlink">
    <!-- Generator: Sketch 3.8.3 (29802) - http://www.bohemiancoding.com/sketch -->
    <title>Path + iconfont-xuanze (2)</title>
    <desc>Created with Sketch.</desc>
    <defs></defs>
    <g id="Page-1" stroke="none" stroke-width="1" fill="none" fill-rule="evenodd">
        <g id="Path-+-iconfont-xuanze-(2)" transform="translate(1.000000, 1.000000)">
            <path d="M10,20.1826763 C4.50699294,20.1826763 0.0346020761,15.7130558 0.0346020761,10.2172983 C0.0346020761,4.72152084 4.50623556,0.252617851 10,0.252617851 C15.4951197,0.252617851 19.9653979,4.72152084 19.9653979,10.2172983 C19.9653979,15.7130757 15.4957575,20.1826763 10,20.1826763 Z M9.92961992,1.42908844 C5.12151474,1.42908844 1.21107266,5.34014837 1.21107266,10.146978 C1.21107266,14.9564983 5.12151474,18.866183 9.92961992,18.866183 C14.7376852,18.866183 18.6489046,14.9564983 18.6489046,10.146978 C18.6495823,5.34018824 14.7377251,1.42908844 9.92961992,1.42908844 Z" id="Path" stroke="#231F20" fill="#231F20"></path>
            <g id="iconfont-xuanze-(2)" transform="translate(3.529412, 5.882353)" stroke="#021215" fill="#021215">
                <path d="M11.8117833,6.90275108 L5.07130774,0.162295446 C4.93832947,0.0293171805 4.70767036,0.0444645749 4.55601694,0.196078138 L4.10420572,0.647889351 C4.10416586,0.647949146 4.10408613,0.648008941 4.10404627,0.648048804 L1.08409223,3.66804271 C0.932458737,3.8196762 0.932458737,4.06550264 1.08409223,4.21713613 L1.90771243,5.04075633 C2.05934592,5.19240976 2.30517236,5.19240976 2.45680585,5.04075633 L4.83058357,2.66697861 L10.4390697,8.2754647 C10.572028,8.40842304 10.802727,8.39327564 10.9543206,8.24166208 L11.7779408,7.41806179 C11.9296142,7.26638846 11.9447416,7.03570943 11.8117833,6.90275108 L11.8117833,6.90275108 Z" id="Shape" transform="translate(6.436377, 4.218872) scale(1, -1) translate(-6.436377, -4.218872) "></path>
            </g>
        </g>
    </g>
</svg>